<svg xmlns="http://www.w3.org/2000/svg" width="712" height="128" viewBox="0 0 712 128"><g fill="#FFF" fill-rule="evenodd" transform="translate(0 .112)"><path d="M128,0 L128,128 L80,128 L80.0012083,100.671123 C94.1278012,94.4983937 104,80.4020846 104,64 C104,47.5979154 94.1278012,33.5016063 80.0012083,27.3288775 L80,0 L128,0 Z M47.9997896,27.3284414 C33.8726637,33.5009424 24,47.5975291 24,64 C24,80.4024709 33.8726637,94.4990576 47.9997896,100.671559 L48,128 L0,128 L0,0 L48,0 Z"/><path fill-rule="nonzero" d="M45.144 96.096C73.392 96.096 90.288 77.748 90.288 48.048 90.288 18.216 73.392 0 45.144 0 16.896 0 0 18.348 0 48.048 0 77.616 16.896 96.096 45.144 96.096ZM45.012 82.896C25.74 82.896 14.52 71.412 14.52 48.048 14.52 24.552 25.74 13.2 45.012 13.2 64.548 13.2 75.768 24.552 75.768 48.048 75.768 71.412 64.548 82.896 45.012 82.896ZM101.204 94.512 114.932 94.512 114.932 57.156C114.932 44.748 121.796 38.412 132.488 38.412 143.444 38.412 149.252 44.484 149.252 58.608L149.252 94.512 162.98 94.512 162.98 54.12C162.98 34.056 150.176 26.136 136.448 26.136 127.34 26.136 119.552 29.7 114.932 36.168L114.932 27.72 101.204 27.72 101.204 94.512ZM207.424 96.096C225.508 96.096 236.992 87.252 239.368 74.712L224.98 74.712C223.132 79.86 217.984 83.292 207.424 83.292 195.676 83.292 187.624 77.352 186.7 66.264L240.82 66.264C243.064 44.088 230.92 26.136 207.424 26.136 186.964 26.136 172.972 39.864 172.972 62.04 172.972 82.632 185.116 96.096 207.424 96.096ZM207.028 38.94C218.38 38.94 225.244 44.352 226.696 55.044L186.7 55.044C188.02 43.956 196.204 38.94 207.028 38.94ZM280.248 96.096C291.468 96.096 298.596 91.344 302.556 85.668L302.556 94.512 316.284 94.512 316.284 1.584 302.556 1.584 302.556 36.036C297.54 29.7 289.488 26.136 280.116 26.136 263.616 26.136 247.908 37.488 247.908 61.512 247.908 84.612 262.824 96.096 280.248 96.096ZM282.36 83.292C269.952 83.292 261.768 74.712 261.768 61.248 261.768 46.464 270.612 38.94 282.096 38.94 292.392 38.94 302.82 45.012 302.82 61.776 302.82 77.088 292.92 83.292 282.36 83.292ZM360.332 96.096C380.66 96.096 394.388 82.236 394.388 61.116 394.388 39.864 380.66 26.136 360.332 26.136 340.004 26.136 326.276 39.996 326.276 61.116 326.276 82.236 340.004 96.096 360.332 96.096ZM360.2 83.16C347.924 83.16 340.4 75.372 340.4 61.116 340.4 46.992 348.056 39.072 360.2 39.072 372.74 39.072 380.396 46.86 380.396 61.116 380.396 75.372 372.74 83.16 360.2 83.16ZM435.004 96.096C452.164 96.096 464.572 87.12 466.948 72.336L452.56 72.336C450.712 79.728 443.716 83.16 435.136 83.16 422.86 83.16 415.336 75.504 415.336 61.248 415.336 46.728 422.464 39.072 434.872 39.072 443.848 39.072 451.9 42.636 453.484 50.952L467.608 50.952C465.628 35.112 452.692 26.136 435.664 26.136 414.808 26.136 401.212 39.996 401.212 61.248 401.212 82.236 414.808 96.096 435.004 96.096ZM504.264 96.096C523.536 96.096 535.548 88.044 535.548 74.052 535.548 60.06 524.328 56.364 512.184 55.308L498.324 54.12C492.12 53.592 488.028 52.008 488.028 46.068 488.028 39.996 493.572 37.62 503.868 37.62 518.124 37.62 520.5 43.824 520.896 48.576L534.624 48.576C534.096 38.808 527.1 26.136 503.868 26.136 484.728 26.136 474.564 35.376 474.564 47.652 474.564 60.72 485.916 65.736 496.476 66.396L508.092 67.188C516.012 67.716 521.556 68.508 521.556 75.504 521.556 81.444 517.2 84.48 504.528 84.48 487.764 84.48 486.444 77.22 486.576 73.128L472.98 73.128C472.32 83.424 479.316 96.096 504.264 96.096Z" transform="translate(176 16)"/></g></svg>