<svg xmlns="http://www.w3.org/2000/svg" xmlns:xlink="http://www.w3.org/1999/xlink" width="128" height="128" viewBox="0 0 128 128"><defs><path id="a" d="M0,0 L1051,0 L1051,1442 L0,1442 L0,0 Z"/></defs><g fill="none" fill-rule="evenodd" transform="translate(-80 -1218)"><use xlink:href="#a" fill="#FFF"/><g fill="#000" transform="translate(80 1218.112)"><path d="M128,0 L128,128 L80,128 L80.0012083,100.671123 C94.1278012,94.4983937 104,80.4020846 104,64 C104,47.5979154 94.1278012,33.5016063 80.0012083,27.3288775 L80,0 L128,0 Z M47.9997896,27.3284414 C33.8726637,33.5009424 24,47.5975291 24,64 C24,80.4024709 33.8726637,94.4990576 47.9997896,100.671559 L48,128 L0,128 L0,0 L48,0 Z"/><path fill-rule="nonzero" d="M45.144 96.096C73.392 96.096 90.288 77.748 90.288 48.048 90.288 18.216 73.392 0 45.144 0 16.896 0 0 18.348 0 48.048 0 77.616 16.896 96.096 45.144 96.096ZM45.012 82.896C25.74 82.896 14.52 71.412 14.52 48.048 14.52 24.552 25.74 13.2 45.012 13.2 64.548 13.2 75.768 24.552 75.768 48.048 75.768 71.412 64.548 82.896 45.012 82.896ZM101.204 94.512 114.932 94.512 114.932 57.156C114.932 44.748 121.796 38.412 132.488 38.412 143.444 38.412 149.252 44.484 149.252 58.608L149.252 94.512 162.98 94.512 162.98 54.12C162.98 34.056 150.176 26.136 136.448 26.136 127.34 26.136 119.552 29.7 114.932 36.168L114.932 27.72 101.204 27.72 101.204 94.512ZM207.424 96.096C225.508 96.096 236.992 87.252 239.368 74.712L224.98 74.712C223.132 79.86 217.984 83.292 207.424 83.292 195.676 83.292 187.624 77.352 186.7 66.264L240.82 66.264C243.064 44.088 230.92 26.136 207.424 26.136 186.964 26.136 172.972 39.864 172.972 62.04 172.972 82.632 185.116 96.096 207.424 96.096ZM207.028 38.94C218.38 38.94 225.244 44.352 226.696 55.044L186.7 55.044C188.02 43.956 196.204 38.94 207.028 38.94ZM280.248 96.096C291.468 96.096 298.596 91.344 302.556 85.668L302.556 94.512 316.284 94.512 316.284 1.584 302.556 1.584 302.556 36.036C297.54 29.7 289.488 26.136 280.116 26.136 263.616 26.136 247.908 37.488 247.908 61.512 247.908 84.612 262.824 96.096 280.248 96.096ZM282.36 83.292C269.952 83.292 261.768 74.712 261.768 61.248 261.768 46.464 270.612 38.94 282.096 38.94 292.392 38.94 302.82 45.012 302.82 61.776 302.82 77.088 292.92 83.292 282.36 83.292ZM360.332 96.096C380.66 96.096 394.388 82.236 394.388 61.116 394.388 39.864 380.66 26.136 360.332 26.136 340.004 26.136 326.276 39.996 326.276 61.116 326.276 82.236 340.004 96.096 360.332 96.096ZM360.2 83.16C347.924 83.16 340.4 75.372 340.4 61.116 340.4 46.992 348.056 39.072 360.2 39.072 372.74 39.072 380.396 46.86 380.396 61.116 380.396 75.372 372.74 83.16 360.2 83.16ZM435.004 96.096C452.164 96.096 464.572 87.12 466.948 72.336L452.56 72.336C450.712 79.728 443.716 83.16 435.136 83.16 422.86 83.16 415.336 75.504 415.336 61.248 415.336 46.728 422.464 39.072 434.872 39.072 443.848 39.072 451.9 42.636 453.484 50.952L467.608 50.952C465.628 35.112 452.692 26.136 435.664 26.136 414.808 26.136 401.212 39.996 401.212 61.248 401.212 82.236 414.808 96.096 435.004 96.096ZM504.264 96.096C523.536 96.096 535.548 88.044 535.548 74.052 535.548 60.06 524.328 56.364 512.184 55.308L498.324 54.12C492.12 53.592 488.028 52.008 488.028 46.068 488.028 39.996 493.572 37.62 503.868 37.62 518.124 37.62 520.5 43.824 520.896 48.576L534.624 48.576C534.096 38.808 527.1 26.136 503.868 26.136 484.728 26.136 474.564 35.376 474.564 47.652 474.564 60.72 485.916 65.736 496.476 66.396L508.092 67.188C516.012 67.716 521.556 68.508 521.556 75.504 521.556 81.444 517.2 84.48 504.528 84.48 487.764 84.48 486.444 77.22 486.576 73.128L472.98 73.128C472.32 83.424 479.316 96.096 504.264 96.096Z" transform="translate(176 16)"/></g><g fill="#000" transform="translate(80 983.896)"><path d="M0,0 L128,0 L128,128 L0,128 Z M0,88 L128,88 L128,104 L0,104 L0,88 Z M0,64 L128,64 L128,72 L0,72 Z M0,40 L128,40 L128,48 L0,48 Z M0,16 L128,16 L128,24 L0,24 Z"/><g transform="translate(176 17.14)"><polygon fill-rule="nonzero" points="34.056 92.928 48.312 92.928 48.312 12.408 82.368 12.408 82.368 0 0 0 0 12.408 34.056 12.408"/><path fill-rule="nonzero" d="M106.22 94.512C124.304 94.512 135.788 85.668 138.164 73.128L123.776 73.128C121.928 78.276 116.78 81.708 106.22 81.708 94.472 81.708 86.42 75.768 85.496 64.68L139.616 64.68C141.86 42.504 129.716 24.552 106.22 24.552 85.76 24.552 71.768 38.28 71.768 60.456 71.768 81.048 83.912 94.512 106.22 94.512ZM105.824 37.356C117.176 37.356 124.04 42.768 125.492 53.46L85.496 53.46C86.816 42.372 95 37.356 105.824 37.356ZM149.872 92.928 163.6 92.928 163.6 58.476C163.6 47.652 169.276 39.996 180.892 39.996L194.488 39.996 194.488 26.136 185.248 26.136C174.424 26.136 167.164 31.812 163.6 39.336L163.6 26.136 149.872 26.136 149.872 92.928ZM200.784 92.928 214.512 92.928 214.512 52.14C214.512 40.92 222.564 36.96 229.956 36.96 238.14 36.96 245.4 41.052 245.4 52.14L245.4 92.928 259.128 92.928 259.128 52.14C259.128 42.768 265.992 36.96 274.44 36.96 283.02 36.96 290.016 41.052 290.016 52.14L290.016 92.928 303.744 92.928 303.744 52.14C303.744 30.756 289.092 24.552 277.08 24.552 267.18 24.552 258.204 28.512 253.98 36.3 249.888 27.588 241.704 24.552 233.652 24.552 224.94 24.552 218.34 27.324 214.512 34.056L214.512 26.136 200.784 26.136 200.784 92.928ZM353.072 94.512C370.892 94.512 385.28 83.028 385.28 59.4 385.28 35.376 370.232 24.552 353.468 24.552 343.832 24.552 335.648 28.116 330.632 34.452L330.632 0 316.904 0 316.904 92.928 330.632 92.928 330.632 83.952C334.46 89.76 341.456 94.512 353.072 94.512ZM350.828 81.708C340.268 81.708 330.368 75.504 330.368 59.4 330.368 42.24 340.664 37.356 351.092 37.356 362.576 37.356 370.76 43.428 370.76 58.872 370.76 73.656 363.236 81.708 350.828 81.708ZM395.272 92.928 409 92.928 409 58.476C409 47.652 414.676 39.996 426.292 39.996L439.888 39.996 439.888 26.136 430.648 26.136C419.824 26.136 412.564 31.812 409 39.336L409 26.136 395.272 26.136 395.272 92.928ZM445.524 14.52 460.572 14.52 460.572 0 445.524 0 445.524 14.52ZM446.184 92.928 459.912 92.928 459.912 26.136 446.184 26.136 446.184 92.928ZM502.244 94.512C513.464 94.512 520.592 89.76 524.552 84.084L524.552 92.928 538.28 92.928 538.28 0 524.552 0 524.552 34.452C519.536 28.116 511.484 24.552 502.112 24.552 485.612 24.552 469.904 35.904 469.904 59.928 469.904 83.028 484.82 94.512 502.244 94.512ZM504.356 81.708C491.948 81.708 483.764 73.128 483.764 59.664 483.764 44.88 492.608 37.356 504.092 37.356 514.388 37.356 524.816 43.428 524.816 60.192 524.816 75.504 514.916 81.708 504.356 81.708ZM580.612 120.648C602.524 120.648 616.384 107.052 616.384 85.14L616.384 26.136 602.656 26.136 602.656 34.584C598.696 29.04 591.568 24.552 579.952 24.552 562.396 24.552 548.272 36.432 548.272 57.948 548.272 80.52 562.66 91.608 579.292 91.608 589.456 91.608 598.168 87.516 602.656 80.784 602.392 97.68 596.848 107.976 580.084 107.976 569.656 107.976 564.244 104.28 563.188 98.208L548.8 98.208C550.384 111.672 562.132 120.648 580.612 120.648ZM582.196 78.804C570.712 78.804 562.792 71.676 562.792 58.212 562.792 46.2 570.052 37.356 582.46 37.356 593.152 37.356 602.92 43.956 602.92 57.684 602.92 72.996 592.624 78.804 582.196 78.804ZM661.092 94.512C679.176 94.512 690.66 85.668 693.036 73.128L678.648 73.128C676.8 78.276 671.652 81.708 661.092 81.708 649.344 81.708 641.292 75.768 640.368 64.68L694.488 64.68C696.732 42.504 684.588 24.552 661.092 24.552 640.632 24.552 626.64 38.28 626.64 60.456 626.64 81.048 638.784 94.512 661.092 94.512ZM660.696 37.356C672.048 37.356 678.912 42.768 680.364 53.46L640.368 53.46C641.688 42.372 649.872 37.356 660.696 37.356Z"/></g></g></g></svg>